<svg width="35" height="35" viewBox="0 0 35 35" fill="none" xmlns="http://www.w3.org/2000/svg">
<g clip-path="url(#clip0_64_17)">
<path d="M17.5 3.29544H12.5284C11.2098 3.29544 9.94529 3.81923 9.01294 4.75159C8.08058 5.68394 7.55679 6.94848 7.55679 8.26703C7.55679 9.58558 8.08058 10.8501 9.01294 11.7825C9.94529 12.7148 11.2098 13.2386 12.5284 13.2386M17.5 3.29544V13.2386M17.5 3.29544H22.4716C23.1244 3.29544 23.7709 3.42403 24.3741 3.67388C24.9773 3.92373 25.5254 4.28993 25.987 4.75159C26.4487 5.21324 26.8149 5.7613 27.0647 6.36449C27.3146 6.96767 27.4432 7.61415 27.4432 8.26703C27.4432 8.91991 27.3146 9.5664 27.0647 10.1696C26.8149 10.7728 26.4487 11.3208 25.987 11.7825C25.5254 12.2441 24.9773 12.6103 24.3741 12.8602C23.7709 13.11 23.1244 13.2386 22.4716 13.2386M17.5 13.2386H12.5284M17.5 13.2386H22.4716M17.5 13.2386V23.1818M12.5284 13.2386C11.2098 13.2386 9.94529 13.7624 9.01294 14.6948C8.08058 15.6271 7.55679 16.8917 7.55679 18.2102C7.55679 19.5288 8.08058 20.7933 9.01294 21.7257C9.94529 22.658 11.2098 23.1818 12.5284 23.1818M22.4716 13.2386C21.8187 13.2386 21.1722 13.3672 20.569 13.6171C19.9658 13.8669 19.4178 14.2331 18.9561 14.6948C18.4945 15.1564 18.1283 15.7045 17.8784 16.3077C17.6286 16.9108 17.5 17.5573 17.5 18.2102C17.5 18.8631 17.6286 19.5096 17.8784 20.1128C18.1283 20.7159 18.4945 21.264 18.9561 21.7257C19.4178 22.1873 19.9658 22.5535 20.569 22.8034C21.1722 23.0532 21.8187 23.1818 22.4716 23.1818C23.1244 23.1818 23.7709 23.0532 24.3741 22.8034C24.9773 22.5535 25.5254 22.1873 25.987 21.7257C26.4487 21.264 26.8149 20.7159 27.0647 20.1128C27.3146 19.5096 27.4432 18.8631 27.4432 18.2102C27.4432 17.5573 27.3146 16.9108 27.0647 16.3077C26.8149 15.7045 26.4487 15.1564 25.987 14.6948C25.5254 14.2331 24.9773 13.8669 24.3741 13.6171C23.7709 13.3672 23.1244 13.2386 22.4716 13.2386ZM12.5284 23.1818C11.2098 23.1818 9.94529 23.7056 9.01294 24.6379C8.08058 25.5703 7.55679 26.8348 7.55679 28.1534C7.55679 29.4719 8.08058 30.7365 9.01294 31.6688C9.94529 32.6012 11.2098 33.125 12.5284 33.125C13.8469 33.125 15.1115 32.6012 16.0438 31.6688C16.9762 30.7365 17.5 29.4719 17.5 28.1534V23.1818M12.5284 23.1818H17.5" stroke="#F5F5F5" stroke-width="3.40909" stroke-linecap="round" stroke-linejoin="round"/>
</g>
<defs>
<clipPath id="clip0_64_17">
<rect width="34.0909" height="34.0909" fill="white" transform="translate(0.454559 0.454559)"/>
</clipPath>
</defs>
</svg>
