<svg width="40" height="28" viewBox="0 0 40 28" fill="none" xmlns="http://www.w3.org/2000/svg">
<path fill-rule="evenodd" clip-rule="evenodd" d="M10 0H30C32.6522 0 35.1957 1.07272 37.0711 2.98218C38.9464 4.89165 40 7.48143 40 10.1818V17.8182C40 20.5186 38.9464 23.1084 37.0711 25.0178C35.1957 26.9273 32.6522 28 30 28H10C7.34784 28 4.8043 26.9273 2.92893 25.0178C1.05357 23.1084 0 20.5186 0 17.8182V10.1818C0 7.48143 1.05357 4.89165 2.92893 2.98218C4.8043 1.07272 7.34784 0 10 0ZM10 2.54545C8.01088 2.54545 6.10322 3.35 4.6967 4.78209C3.29018 6.21419 2.5 8.15653 2.5 10.1818V17.8182C2.5 19.8435 3.29018 21.7858 4.6967 23.2179C6.10322 24.65 8.01088 25.4545 10 25.4545H30C31.9891 25.4545 33.8968 24.65 35.3033 23.2179C36.7098 21.7858 37.5 19.8435 37.5 17.8182V10.1818C37.5 8.15653 36.7098 6.21419 35.3033 4.78209C33.8968 3.35 31.9891 2.54545 30 2.54545H10Z" fill="white"/>
<path d="M13.75 7.63635C13.4185 7.63635 13.1005 7.77044 12.8661 8.00913C12.6317 8.24781 12.5 8.57153 12.5 8.90908V12.7273H8.75C8.41848 12.7273 8.10054 12.8614 7.86612 13.1C7.6317 13.3387 7.5 13.6624 7.5 14C7.5 14.3375 7.6317 14.6613 7.86612 14.8999C8.10054 15.1386 8.41848 15.2727 8.75 15.2727H12.5V19.0909C12.5 19.4284 12.6317 19.7522 12.8661 19.9909C13.1005 20.2295 13.4185 20.3636 13.75 20.3636C14.0815 20.3636 14.3995 20.2295 14.6339 19.9909C14.8683 19.7522 15 19.4284 15 19.0909V15.2727H18.75C19.0815 15.2727 19.3995 15.1386 19.6339 14.8999C19.8683 14.6613 20 14.3375 20 14C20 13.6624 19.8683 13.3387 19.6339 13.1C19.3995 12.8614 19.0815 12.7273 18.75 12.7273H15V8.90908C15 8.57153 14.8683 8.24781 14.6339 8.00913C14.3995 7.77044 14.0815 7.63635 13.75 7.63635ZM32.5 10.1818C32.5 10.8569 32.2366 11.5043 31.7678 11.9817C31.2989 12.4591 30.663 12.7273 30 12.7273C29.337 12.7273 28.7011 12.4591 28.2322 11.9817C27.7634 11.5043 27.5 10.8569 27.5 10.1818C27.5 9.50671 27.7634 8.85926 28.2322 8.3819C28.7011 7.90453 29.337 7.63635 30 7.63635C30.663 7.63635 31.2989 7.90453 31.7678 8.3819C32.2366 8.85926 32.5 9.50671 32.5 10.1818ZM30 17.8182C30 18.4933 29.7366 19.1407 29.2678 19.6181C28.7989 20.0954 28.163 20.3636 27.5 20.3636C26.837 20.3636 26.2011 20.0954 25.7322 19.6181C25.2634 19.1407 25 18.4933 25 17.8182C25 17.1431 25.2634 16.4956 25.7322 16.0183C26.2011 15.5409 26.837 15.2727 27.5 15.2727C28.163 15.2727 28.7989 15.5409 29.2678 16.0183C29.7366 16.4956 30 17.1431 30 17.8182Z" fill="white"/>
</svg>
